<svg xmlns="http://www.w3.org/2000/svg" id="Layer_1" enable-background="new 0 0 128 128" version="1.1" viewBox="0 0 128 128" xml:space="preserve"><circle cx="64" cy="64" r="60" fill="#382673"/><circle cx="64" cy="64" r="50" fill="#473080"/><path fill="#0cafe8" d="M84,110H44V92c0-1.1,0.9-2,2-2h36c1.1,0,2,0.9,2,2V110z"/><polygon fill="#0b90d3" points="87 113 41 113 42 110 86 110"/><path fill="#fff" d="M72,106H56c-2.2,0-4-1.8-4-4v-3c0-2.2,1.8-4,4-4h16c2.2,0,4,1.8,4,4v3C76,104.2,74.2,106,72,106z"/><rect width="10.5" height="16.5" x="58.8" y="68.5" fill="#f9a74e"/><rect width="3" height="16.5" x="66.2" y="68.5" fill="#382673" opacity=".2"/><path fill="#ffde39" d="M73,84H55c-3.3,0-6,2.7-6,6v0h30v0C79,86.7,76.3,84,73,84z"/><path fill="#fec632" d="M73,84h-5c3.3,0,6,2.7,6,6h5C79,86.7,76.3,84,73,84z"/><path fill="#ffde39" d="M69.1,77H58.9c-2.7,0-4.9-2.2-4.9-4.9V71h20v1.1C74,74.8,71.8,77,69.1,77z"/><path fill="#fec632" d="M70,71v1.1c0,2.7-1.2,4.9-3.9,4.9h3c2.7,0,4.9-2.2,4.9-4.9V71H70z"/><path fill="#f9a74e" d="M81,90H47l0,0c0-1.1,0.9-2,2-2h30C80.1,88,81,88.9,81,90L81,90z"/><path fill="#382673" d="M79,88h-5c1.1,0,2,0.9,2,2h5C81,88.9,80.1,88,79,88z" opacity=".2"/><path fill="#f9a74e" d="M76,69H52v3c0,1.1,0.9,2,2,2h20c1.1,0,2-0.9,2-2V69z"/><path fill="#f9a74e" d="M76,69H52v3c0,1.1,0.9,2,2,2h20c1.1,0,2-0.9,2-2V69z"/><path fill="#382673" d="M71,69l-2,3c1,0,1.1,2,0,2h5c1.1,0,2-0.9,2-2v-3H71z" opacity=".2"/><path fill="none" stroke="#f9a74e" stroke-linecap="round" stroke-linejoin="round" stroke-miterlimit="10" stroke-width="4" d="M78,37h19v1c0,10.5-8.5,19-19,19h0"/><path fill="none" stroke="#fec632" stroke-linecap="round" stroke-linejoin="round" stroke-miterlimit="10" stroke-width="4" d="M50,37H31v1c0,10.5,8.5,19,19,19h0"/><path fill="#ffde39" d="M72.5,72h-17C49.1,72,44,66.9,44,60.5V29h40v31.5C84,66.9,78.9,72,72.5,72z"/><path fill="none" stroke="#fff" stroke-linecap="round" stroke-linejoin="round" stroke-miterlimit="10" stroke-width="2" d="M50,32c0,0,0,17,0,20" opacity=".3"/><path fill="#fec632" d="M79,29v31.5C79,66.9,73.9,72,67.5,72h5C78.9,72,84,66.9,84,60.5V29H79z"/><polygon fill="#f9a74e" points="87 29 41 29 44 32 84 32"/><polygon fill="#382673" points="81 29 79 32 84 32 87 29" opacity=".2"/><path fill="#ffde39" d="M88,25H40c-1.1,0-2,0.9-2,2v0c0,1.1,0.9,2,2,2h48c1.1,0,2-0.9,2-2v0C90,25.9,89.1,25,88,25z"/><path fill="#fec632" d="M88,25h-6c1.1,0,2,0.9,2,2c0,1.1-0.9,2-2,2h6c1.1,0,2-0.9,2-2C90,25.9,89.1,25,88,25z"/><line x1="50" x2="50" y1="56.4" y2="58.7" fill="none" stroke="#fff" stroke-linecap="round" stroke-linejoin="round" stroke-miterlimit="10" stroke-width="2" opacity=".3"/><path fill="#fff" d="M48.9,21.4l0.6-1.5c0.2-0.4,0.8-0.4,0.9,0l0.6,1.5c0.5,1.2,1.4,2.1,2.6,2.6l1.5,0.6c0.4,0.2,0.4,0.8,0,0.9  l-1.5,0.6c-1.2,0.5-2.1,1.4-2.6,2.6l-0.6,1.5c-0.2,0.4-0.8,0.4-0.9,0l-0.6-1.5c-0.5-1.2-1.4-2.1-2.6-2.6l-1.5-0.6  c-0.4-0.2-0.4-0.8,0-0.9l1.5-0.6C47.5,23.5,48.5,22.5,48.9,21.4z"/><path fill="#fec632" d="M64,54.5l4.3,2.3c0.6,0.3,1.4-0.2,1.3-0.9L68.7,51l3.5-3.4c0.5-0.5,0.2-1.4-0.5-1.5l-4.8-0.7l-2.2-4.4  c-0.3-0.6-1.2-0.6-1.5,0l-2.2,4.4l-4.8,0.7c-0.7,0.1-1,1-0.5,1.5l3.5,3.4l-0.8,4.8c-0.1,0.7,0.6,1.2,1.3,0.9L64,54.5z"/></svg>