<svg width="256" height="74" viewBox="0 0 256 74" fill="none" xmlns="http://www.w3.org/2000/svg">
<path d="M99.6892 52.5912V38.1805H115.766V33.452H99.6892V24.7155H116.757V19.942H93.97V52.5912H99.6892ZM125.828 25.346V19.942H120.469V25.346H125.828ZM125.828 52.5912V28.3632H120.469V52.5912H125.828ZM137.214 52.5912V19.942H131.855V52.5912H137.214ZM154.116 53.1766C160.33 53.1766 164.023 49.2137 165.104 45.3408H159.835C158.889 47.6375 156.728 48.7183 153.891 48.7183C150.828 48.7183 147.676 46.5117 147.316 42.0083H165.374C165.87 33.9023 161.186 27.8228 153.756 27.8228C146.911 27.8228 141.867 33.0017 141.867 40.2971C141.867 47.2772 146.325 53.1766 154.116 53.1766ZM159.925 38.0904H147.316C147.811 33.5421 151.234 32.0109 153.756 32.0109C156.908 32.0109 159.79 34.3076 159.925 38.0904ZM180.633 53.1766C185.812 53.1766 190.81 49.9792 191.891 44.305H186.667C185.947 47.5474 183.38 48.7183 180.723 48.7183C177.57 48.7183 174.508 46.2415 174.508 40.4772C174.508 34.758 177.48 32.2811 180.858 32.2811C183.785 32.2811 185.992 34.0825 186.487 36.6494H191.711C190.765 31.2904 186.172 27.8228 180.858 27.8228C173.608 27.8228 168.969 33.3169 168.969 40.5222C168.969 47.7276 173.608 53.1766 180.633 53.1766ZM206.961 53.1766C212.86 53.1766 218.894 49.3037 218.894 40.5222C218.894 31.7858 212.86 27.8228 206.961 27.8228C201.061 27.8228 195.027 31.7858 195.027 40.5222C195.027 49.3037 201.061 53.1766 206.961 53.1766ZM206.961 48.8084C203.538 48.8084 200.566 46.1514 200.566 40.5222C200.566 34.9381 203.538 32.1911 206.961 32.1911C210.383 32.1911 213.355 34.9381 213.355 40.5222C213.355 46.1514 210.383 48.8084 206.961 48.8084ZM229.033 25.346V19.942H223.674V25.346H229.033ZM229.033 52.5912V28.3632H223.674V52.5912H229.033ZM240.418 52.5912V39.7116C240.418 35.3434 241.904 32.1911 246.048 32.1911C250.191 32.1911 250.641 35.4335 250.641 38.6759V52.5912H256V37.3699C256 31.6056 253.613 27.8228 247.759 27.8228C244.336 27.8228 241.814 29.2189 240.418 31.7407V28.3632H235.059V52.5912H240.418Z" fill="white"/>
<path fill-rule="evenodd" clip-rule="evenodd" d="M37.0337 0.000666386C57.1862 0.120835 73.7377 16.614 73.5802 37.0933C73.4256 57.1889 57.0414 73.63 36.7926 73.5649C16.4855 73.6427 -0.0913211 57.0272 0.000378627 36.609C0.0928419 16.4242 16.5888 -0.120967 37.0337 0.000666386ZM42.1847 17.984C40.135 20.7879 39.2359 24.0846 38.2575 27.3426C37.9721 28.2936 37.7275 29.2573 37.4407 30.3012C33.8664 29.7838 30.4376 29.2876 26.909 28.7779C26.7838 29.7304 26.6672 30.6238 26.5427 31.5727C30.0362 32.1105 33.3786 32.6243 36.8327 33.1557C36.3702 35.1042 35.9393 36.9226 35.4964 38.7881C32.1084 38.3144 28.8961 37.8666 25.662 37.4139C25.5249 38.4585 25.4216 39.2478 25.2993 40.1771C28.5474 40.6733 31.6789 41.1513 34.8315 41.6328C34.8315 41.9885 34.8701 42.1951 34.8252 42.3828C33.8193 46.6699 32.8837 50.9759 31.7555 55.2299C31.2164 57.2586 30.349 59.2169 28.6627 60.6424C27.2745 61.8155 25.7491 61.6194 24.7053 60.1637C24.2337 59.5079 23.84 58.729 23.2173 58.2693C22.7625 57.9326 21.7503 57.7302 21.4164 58.0001C20.9215 58.4008 20.5631 59.2872 20.6052 59.9381C20.6411 60.5151 21.1964 61.1899 21.706 61.5836C23.4232 62.9058 25.4441 63.0976 27.4917 62.6949C30.9212 62.0194 33.3399 59.8797 34.8392 56.8537C36.0173 54.475 36.8995 51.9347 37.7331 49.4063C38.488 47.1169 39.0005 44.7474 39.6401 42.3322C43.0085 42.8207 46.31 43.2994 49.6798 43.7879C49.9582 42.8264 50.2091 41.9562 50.4797 41.0192C46.9539 40.5011 43.5898 40.0056 40.1968 39.5065C40.6045 37.5151 40.9672 35.7417 41.3622 33.8101C44.5703 34.2635 47.706 34.7056 50.9387 35.1625C51.2108 34.1897 51.442 33.3602 51.707 32.412C48.3822 31.92 45.2093 31.4504 41.8023 30.9464C42.948 26.892 43.9377 23.0155 45.1755 19.2183C45.5832 17.9686 46.4942 16.7954 47.4228 15.8247C48.6409 14.5524 50.3265 14.8343 51.3584 16.2324C51.7907 16.8179 52.1976 17.4372 52.7157 17.9383C53.3771 18.5773 54.3521 18.888 55.0163 18.2659C55.4528 17.8575 55.4388 16.8966 55.4795 16.174C55.4957 15.8837 55.1534 15.5421 54.9165 15.2743C53.763 13.9683 52.2047 13.5058 50.5592 13.4369C46.8878 13.2829 44.2533 15.1548 42.1847 17.984Z" fill="white"/>
</svg>
